<?xml version="1.0" standalone="no"?>
<!DOCTYPE svg PUBLIC "-//W3C//DTD SVG 1.1//EN" "http://www.w3.org/Graphics/SVG/1.1/DTD/svg11.dtd" >
<svg xmlns="http://www.w3.org/2000/svg" xmlns:xlink="http://www.w3.org/1999/xlink" version="1.1">
<metadata>
Created by FontForge 20170731 at Mon Jul 22 21:17:01 2013
 By Aleksey,,,
(c)2013 Optimo.
</metadata>
<defs>
<font id="PxGroteskRegular" horiz-adv-x="1228" >
  <font-face 
    font-family="Px Grotesk Regular"
    font-weight="400"
    font-stretch="normal"
    units-per-em="2048"
    panose-1="2 6 5 3 3 0 0 2 0 4"
    ascent="1649"
    descent="-399"
    x-height="1044"
    cap-height="1393"
    bbox="-47 -399 2122 1888"
    underline-thickness="102"
    underline-position="-306"
    unicode-range="U+001D-FB02"
  />
<missing-glyph horiz-adv-x="748" 
d="M68 0v1365h544v-1365h-544zM136 68h408v1229h-408v-1229z" />
    <glyph glyph-name="uniFB01" unicode="fi" horiz-adv-x="1245" 
d="M70 887v157h176v349h422v-158h-240v-191h647v-1044h-184v887h-463v-887h-182v887h-176zM891 1208v185h184v-185h-184z" />
    <glyph glyph-name="uniFB02" unicode="fl" horiz-adv-x="1249" 
d="M70 887v157h176v349h829v-1393h-184v1235h-463v-191h219v-157h-219v-887h-182v887h-176z" />
    <glyph glyph-name=".notdef" horiz-adv-x="748" 
d="M68 0v1365h544v-1365h-544zM136 68h408v1229h-408v-1229z" />
    <glyph glyph-name=".null" horiz-adv-x="0" 
 />
    <glyph glyph-name=".null" horiz-adv-x="0" 
 />
    <glyph glyph-name="nonmarkingreturn" horiz-adv-x="0" 
 />
    <glyph glyph-name="uni0008" horiz-adv-x="0" 
 />
    <glyph glyph-name="space" unicode=" " horiz-adv-x="520" 
 />
    <glyph glyph-name="exclam" unicode="!" horiz-adv-x="569" 
d="M172 0v225h225v-225h-225zM193 670v723h184v-723l-41 -305h-103z" />
    <glyph glyph-name="quotedbl" unicode="&#x22;" horiz-adv-x="790" 
d="M162 887v536h155v-536h-155zM473 887v536h156v-536h-156z" />
    <glyph glyph-name="numbersign" unicode="#" horiz-adv-x="1259" 
d="M113 344v148h213l59 407h-227v145h248l51 349h153l-51 -349h236l51 349h153l-51 -349h201v-145h-221l-60 -407h232v-148h-254l-49 -344h-154l49 344h-235l-49 -344h-154l49 344h-190zM481 492h236l55 407h-235z" />
    <glyph glyph-name="dollar" unicode="$" horiz-adv-x="1187" 
d="M94 406h185q10 -121 76.5 -185.5t164.5 -81.5v496l-63 16q-154 41 -239 142.5t-85 255.5q0 72 31 136t83 113.5t122.5 81t150.5 39.5v168h135v-170q76 -10 143.5 -38.5t120 -78t85 -121t38.5 -165.5h-184q-10 117 -68.5 169t-134.5 66v-463l84 -20q76 -18 140.5 -50
t112.5 -80t75 -113.5t27 -153.5t-36 -159t-95.5 -121t-139.5 -81t-168 -37v-166h-135v170q-84 8 -157.5 39t-131 84.5t-93.5 129t-44 178.5zM317 1057q0 -174 203 -236v432q-82 -14 -142.5 -63t-60.5 -133zM655 137q104 14 177 71.5t73 156.5q0 178 -215 229l-35 8v-465z
" />
    <glyph glyph-name="percent" unicode="%" horiz-adv-x="1652" 
d="M96 1034q0 80 14.5 148.5t47 119t87 79t134.5 28.5t134 -28.5t87 -79t47.5 -119t14.5 -148.5t-14.5 -148.5t-47.5 -118.5t-87 -79t-134 -29t-134.5 29t-87 79t-47 118.5t-14.5 148.5zM250 899q0 -61 34 -93t95 -32t95 32t34 93v270q0 61 -34 93t-95 32t-95 -31.5
t-34 -93.5v-270zM313 0l873 1393h155l-872 -1393h-156zM993 358q0 80 14.5 148.5t47 119t87 79t134.5 28.5t134 -28.5t87 -79t47.5 -119t14.5 -148.5t-14.5 -148.5t-47.5 -118.5t-87 -78.5t-134 -28.5t-134.5 28.5t-87 78.5t-47 119t-14.5 148zM1147 223q0 -61 34 -93
t95 -32t95 32t34 93v271q0 61 -34 92.5t-95 31.5t-95 -31.5t-34 -92.5v-271z" />
    <glyph glyph-name="ampersand" unicode="&#x26;" horiz-adv-x="1263" 
d="M119 344q0 121 50 203t136 147l98 76q-88 106 -137 183t-49 161q0 66 26.5 122t74 98t112 65.5t139.5 23.5q160 0 249 -81.5t89 -219.5q0 -104 -71.5 -197.5t-190.5 -181.5l213 -282h4v282h178v-507l185 -236h-219l-88 113q-78 -68 -168.5 -103t-219.5 -35
q-193 0 -302 95.5t-109 273.5zM313 295q0 -43 18.5 -74t49.5 -51t69.5 -30.5t77.5 -10.5q90 0 159 23.5t128 87.5l-307 397l-119 -92q-33 -25 -54.5 -53.5t-21.5 -75.5v-121zM401 1126q0 -59 41.5 -118t100.5 -129q80 61 130 119.5t50 136.5q0 61 -41 98t-117 37
q-72 0 -118 -41t-46 -103z" />
    <glyph glyph-name="quotesingle" unicode="'" horiz-adv-x="479" 
d="M162 887v536h155v-536h-155z" />
    <glyph glyph-name="parenleft" unicode="(" horiz-adv-x="645" 
d="M117 559q0 152 21.5 279t61.5 236.5t96 205.5t126 186h164q-139 -188 -212 -355t-73 -337v-430q0 -170 77 -344t208 -348h-164q-70 90 -126 186t-96 206t-61.5 237t-21.5 278z" />
    <glyph glyph-name="parenright" unicode=")" horiz-adv-x="645" 
d="M59 -348q131 174 208 348t77 344v430q0 170 -72.5 337t-212.5 355h164q70 -90 126.5 -186t96 -205.5t61 -236.5t21.5 -279t-21.5 -278.5t-61 -236.5t-96 -206t-126.5 -186h-164z" />
    <glyph glyph-name="asterisk" unicode="*" horiz-adv-x="937" 
d="M141 915l224 129l-224 130l52 90l225 -131v260h102v-260l225 131l52 -90l-226 -130l226 -129l-52 -90l-225 129v-258h-102v258l-225 -129z" />
    <glyph glyph-name="plus" unicode="+" 
d="M92 449v147h445v448h155v-448h445v-147h-445v-449h-155v449h-445z" />
    <glyph glyph-name="comma" unicode="," horiz-adv-x="536" 
d="M156 0v225h225v-225l-127 -225h-98l120 225h-120z" />
    <glyph glyph-name="hyphen" unicode="-" horiz-adv-x="884" 
d="M156 471v168h573v-168h-573z" />
    <glyph glyph-name="period" unicode="." horiz-adv-x="536" 
d="M156 0v225h225v-225h-225z" />
    <glyph glyph-name="slash" unicode="/" horiz-adv-x="933" 
d="M53 0l639 1393h189l-639 -1393h-189z" />
    <glyph glyph-name="zero" unicode="0" 
d="M121 696q0 156 22.5 290t77.5 230.5t150.5 151.5t242.5 55t242.5 -55t151 -151.5t78 -230.5t22.5 -290q0 -158 -22.5 -291t-78 -229t-150.5 -151.5t-243 -55.5q-147 0 -242.5 55.5t-150.5 151.5t-77.5 229.5t-22.5 290.5zM326 424q0 -139 80.5 -215t207.5 -76t208 76
t81 215v545q0 139 -81 215t-208 76t-207.5 -76t-80.5 -215v-545z" />
    <glyph glyph-name="one" unicode="1" 
d="M217 0v162h358v907h-358v162h358v162h185v-1231h327v-162h-870z" />
    <glyph glyph-name="two" unicode="2" 
d="M147 0v162l558 547q41 41 72.5 76.5t53 70.5t32.5 73t11 85q0 117 -70.5 181.5t-182.5 64.5q-123 0 -201 -69t-78 -208h-188q0 104 35.5 185t99 138.5t149.5 87t187 29.5q100 0 181 -28.5t138 -83t88 -130t31 -167.5q0 -68 -18.5 -127.5t-48 -109.5t-68.5 -95t-82 -84
l-457 -432v-4h694v-162h-936z" />
    <glyph glyph-name="three" unicode="3" 
d="M119 406h188q10 -145 92 -209t205 -64q63 0 116.5 17.5t91.5 46t59.5 66.5t21.5 79v139q0 66 -40 109t-114 43h-317v162h291q74 0 113.5 42t39.5 107v127q0 45 -20.5 81t-55 59.5t-80.5 36t-98 12.5q-125 0 -193.5 -65t-76.5 -169h-188q0 76 31.5 147.5t90 127t143.5 89
t193 33.5q104 0 188.5 -27.5t144 -77.5t91 -120t31.5 -151q0 -127 -50 -206t-126 -120q96 -43 149.5 -122t53.5 -210q0 -100 -37 -178t-101.5 -132t-154.5 -82t-197 -28q-102 0 -190 27t-153.5 81t-103.5 136t-38 193z" />
    <glyph glyph-name="four" unicode="4" 
d="M111 336v162l612 895h186v-895h201v-162h-201v-336h-184v336h-614zM295 498h430v630z" />
    <glyph glyph-name="five" unicode="5" 
d="M135 385h189q14 -129 87.5 -190.5t196.5 -61.5q125 0 206 62.5t81 175.5v182q0 111 -78 167t-205 56q-96 0 -160.5 -44t-105.5 -122h-188l53 783h805v-162h-635l-33 -432q47 66 127 101.5t170 35.5q104 0 188.5 -34t143.5 -96.5t91 -150.5t32 -194q0 -111 -34 -202
t-97.5 -155.5t-153.5 -99.5t-201 -35q-217 0 -339.5 108.5t-139.5 307.5z" />
    <glyph glyph-name="six" unicode="6" 
d="M123 662q0 172 27.5 313t89 240.5t157 153.5t230.5 54q219 0 327.5 -98t126.5 -278h-188q-12 102 -77.5 157.5t-188.5 55.5q-139 0 -219 -96.5t-80 -254.5v-137q57 72 142 107.5t183 35.5q111 0 197 -32.5t146.5 -92t92 -143.5t31.5 -186q0 -88 -30.5 -176t-93 -158
t-155.5 -114t-218 -44q-139 0 -234.5 44t-154 132t-85 217.5t-26.5 299.5zM328 397q0 -55 21.5 -103t60.5 -84t93 -56.5t120 -20.5t120 20.5t91.5 56.5t59 84t21.5 103v115q0 111 -78.5 177.5t-211.5 66.5t-215 -66.5t-82 -177.5v-115z" />
    <glyph glyph-name="seven" unicode="7" 
d="M162 1231v162h928v-160l-576 -1233h-209l586 1231h-729z" />
    <glyph glyph-name="eight" unicode="8" 
d="M113 373q0 129 67.5 219t186.5 133q-213 92 -213 322q0 88 35.5 157.5t98 118.5t146.5 74.5t180 25.5t180.5 -25.5t147 -74.5t98 -118.5t35.5 -157.5q0 -229 -213 -322q119 -43 186.5 -133t67.5 -219q0 -104 -40 -180t-107.5 -125.5t-159 -74t-195.5 -24.5t-195 24.5
t-158.5 74t-107.5 125t-40 180.5zM317 332q0 -92 81 -145.5t216 -53.5t216 53.5t81 145.5v106q0 92 -80.5 146.5t-216.5 54.5q-135 0 -216 -54.5t-81 -146.5v-106zM354 985q0 -47 20.5 -82t55.5 -57.5t83 -34.5t101 -12t100.5 12t83.5 34.5t56 57.5t20 82v88q0 45 -20 81
t-56 58.5t-83 35t-101 12.5q-53 0 -101 -12.5t-83 -35t-55.5 -58.5t-20.5 -81v-88z" />
    <glyph glyph-name="nine" unicode="9" 
d="M106 932q0 88 31 176t93.5 157.5t155.5 113.5t218 44q137 0 233.5 -44t155 -132t85 -217t26.5 -299q0 -174 -27.5 -315.5t-89 -240.5t-157 -152.5t-230.5 -53.5q-219 0 -327.5 98.5t-127.5 278.5h189q12 -102 77.5 -157.5t188.5 -55.5q139 0 219 96.5t80 253.5v138
q-57 -72 -142 -108t-184 -36q-111 0 -196.5 33t-146 92.5t-92.5 143t-32 186.5zM311 881q0 -111 79 -177.5t212 -66.5t215 66.5t82 177.5v114q0 55 -21.5 103.5t-60.5 84.5t-93 56.5t-120 20.5t-120 -20.5t-93 -56.5t-59.5 -84t-20.5 -104v-114z" />
    <glyph glyph-name="colon" unicode=":" horiz-adv-x="536" 
d="M156 0v225h225v-225h-225zM156 819v225h225v-225h-225z" />
    <glyph glyph-name="semicolon" unicode=";" horiz-adv-x="536" 
d="M156 0v225h225v-225l-127 -225h-98l120 225h-120zM156 819v225h225v-225h-225z" />
    <glyph glyph-name="less" unicode="&#x3c;" 
d="M74 449v147l1044 448v-159l-844 -363l844 -362v-160z" />
    <glyph glyph-name="equal" unicode="=" 
d="M92 238v147h1045v-147h-1045zM92 659v148h1045v-148h-1045z" />
    <glyph glyph-name="greater" unicode="&#x3e;" 
d="M111 0v160l843 362l-843 363v159l1044 -448v-147z" />
    <glyph glyph-name="question" unicode="?" horiz-adv-x="1030" 
d="M78 1026q6 92 44 166t98.5 125t138 78.5t165.5 27.5q90 0 167 -26.5t132.5 -75.5t87 -117.5t31.5 -152.5q0 -68 -13.5 -120t-37 -94t-55 -77t-66.5 -66q-45 -41 -80 -71.5t-59.5 -59t-37.5 -61.5t-13 -76v-61h-185v61q0 59 12.5 104t37 84t62.5 75t87 77q86 70 125 132.5
t39 148.5q0 104 -66.5 161.5t-169.5 57.5q-111 0 -180.5 -61.5t-79.5 -178.5h-184zM375 0v225h225v-225h-225z" />
    <glyph glyph-name="at" unicode="@" horiz-adv-x="1718" 
d="M213 -158v1360h1290v-1044h-921v729h553v-572h184v729h-922v-1044h738v-158h-922zM766 315h184v414h-184v-414z" />
    <glyph glyph-name="A" unicode="A" horiz-adv-x="1292" 
d="M55 0l482 1393h217l483 -1393h-205l-114 344h-547l-115 -344h-201zM422 504h444l-217 672h-8z" />
    <glyph glyph-name="B" unicode="B" horiz-adv-x="1327" 
d="M188 0v1393h543q104 0 180 -14.5t136 -57.5q120 -85 120 -263q0 -122 -56.5 -209t-154.5 -124q111 -31 176.5 -112t65.5 -207q0 -203 -106 -302q-59 -53 -146.5 -78.5t-204.5 -25.5h-553zM383 174h438q78 0 125 37t47 115v168q0 70 -43 104.5t-116 34.5h-451v-459z
M383 807h428q78 0 115 41t37 106v125q0 139 -152 140h-428v-412z" />
    <glyph glyph-name="C" unicode="C" horiz-adv-x="1314" 
d="M125 684q0 170 35 307t106.5 233.5t180 147.5t253.5 51q100 0 187.5 -29.5t153 -85t105.5 -134t46 -177.5h-195q-14 123 -96 189.5t-219 66.5q-74 0 -136.5 -25.5t-108.5 -70.5t-71.5 -107.5t-25.5 -138.5v-430q0 -74 27.5 -136t76 -108.5t113 -72t137.5 -25.5
q139 0 225.5 62.5t100.5 204.5h194q-6 -98 -48 -179.5t-110.5 -137.5t-161 -88t-198.5 -32q-139 0 -245.5 50.5t-178 144.5t-109.5 225t-38 295z" />
    <glyph glyph-name="D" unicode="D" horiz-adv-x="1366" 
d="M188 0v1393h451q315 0 456.5 -173t141.5 -524q0 -350 -141.5 -523t-456.5 -173h-451zM383 174h256q197 0 290 82t93 236v409q0 154 -93 236t-290 82h-256v-1045z" />
    <glyph glyph-name="E" unicode="E" horiz-adv-x="1232" 
d="M188 0v1393h924v-174h-729v-422h635v-174h-635v-449h729v-174h-924z" />
    <glyph glyph-name="F" unicode="F" horiz-adv-x="1136" 
d="M188 0v1393h854v-174h-659v-422h610v-174h-610v-623h-195z" />
    <glyph glyph-name="G" unicode="G" horiz-adv-x="1376" 
d="M125 684q0 174 36 311.5t107.5 232.5t182 145t260.5 50q104 0 193 -29.5t154.5 -85t106.5 -134t47 -177.5h-194q-14 123 -97 189.5t-229 66.5q-78 0 -142.5 -25.5t-110.5 -70.5t-72.5 -107.5t-26.5 -138.5v-430q0 -74 27.5 -136t76 -108.5t115 -72t143.5 -25.5
q162 0 250 86t88 250v94h-315v174h510v-743h-186l-9 147q-53 -80 -137 -129t-217 -49t-237.5 50.5t-176 143.5t-109.5 225t-38 296z" />
    <glyph glyph-name="H" unicode="H" horiz-adv-x="1423" 
d="M188 0v1393h195v-590h657v590h195v-1393h-195v629h-657v-629h-195z" />
    <glyph glyph-name="I" unicode="I" horiz-adv-x="571" 
d="M188 0v1393h195v-1393h-195z" />
    <glyph glyph-name="J" unicode="J" horiz-adv-x="870" 
d="M39 0v174h448v1219h195v-1393h-643z" />
    <glyph glyph-name="K" unicode="K" horiz-adv-x="1288" 
d="M188 0v1393h195v-1393h-195zM387 743l578 650h237l-588 -650l639 -743h-237z" />
    <glyph glyph-name="L" unicode="L" horiz-adv-x="1050" 
d="M188 0v1393h195v-1219h631v-174h-826z" />
    <glyph glyph-name="M" unicode="M" horiz-adv-x="1705" 
d="M188 0v1393h308l356 -1076h8l354 1076h304v-1393h-183v1186h-8l-395 -1186h-156l-397 1186h-8v-1186h-183z" />
    <glyph glyph-name="N" unicode="N" horiz-adv-x="1423" 
d="M188 0v1393h275l575 -1157h9v1157h188v-1393h-274l-576 1163h-8v-1163h-189z" />
    <glyph glyph-name="O" unicode="O" horiz-adv-x="1445" 
d="M125 696q0 164 35 298t107.5 229.5t185 147.5t270.5 52t270.5 -52t185 -147.5t107.5 -229.5t35 -298t-35 -298t-107.5 -229t-185 -147.5t-270.5 -52.5t-270.5 52.5t-185 147.5t-107.5 229t-35 298zM340 481q0 -80 29.5 -142.5t82 -107.5t122 -68.5t149.5 -23.5
t149.5 23.5t122 68.5t82 107.5t29.5 142.5v430q0 80 -29.5 142.5t-82 107.5t-122 68.5t-149.5 23.5t-149.5 -23.5t-122 -68.5t-82 -107.5t-29.5 -142.5v-430z" />
    <glyph glyph-name="P" unicode="P" horiz-adv-x="1234" 
d="M188 0v1393h527q125 0 203.5 -23.5t134.5 -81.5q53 -55 75.5 -138t22.5 -181q0 -96 -27.5 -181.5t-87.5 -144.5q-115 -113 -319 -113h-334v-530h-195zM383 705h408q70 0 112.5 45t42.5 114v203q0 70 -41 111t-114 41h-408v-514z" />
    <glyph glyph-name="Q" unicode="Q" horiz-adv-x="1458" 
d="M125 696q0 166 35 300t107.5 229.5t185 146.5t270.5 51t270.5 -51t185 -146.5t107.5 -229.5t35 -300q0 -147 -27.5 -271t-89.5 -220l211 -205l-127 -127l-205 199q-135 -102 -360 -103q-158 0 -270.5 51.5t-185 146.5t-107.5 229t-35 300zM340 481q0 -80 29.5 -142.5
t82 -107.5t122 -68.5t149.5 -23.5t149.5 23.5t122 68.5t82 107.5t29.5 142.5v430q0 80 -29.5 142.5t-82 107.5t-122 68.5t-149.5 23.5t-149.5 -23.5t-122 -68.5t-82 -107.5t-29.5 -142.5v-430z" />
    <glyph glyph-name="R" unicode="R" horiz-adv-x="1275" 
d="M188 0v1393h525q109 0 192.5 -25t138.5 -76t80 -125.5t25 -173.5q0 -92 -23.5 -166.5t-76.5 -128.5q-41 -41 -95.5 -67.5t-136.5 -36.5l344 -594h-223l-326 588h-229v-588h-195zM383 754h401q78 0 119 47t41 112v154q0 72 -43 112t-117 40h-401v-465z" />
    <glyph glyph-name="S" unicode="S" horiz-adv-x="1261" 
d="M96 406h195q16 -141 110.5 -204t233.5 -63q70 0 129 14.5t103 43t70 70.5t26 98q0 90 -50.5 141t-160.5 82l-273 76q-172 47 -254 142t-82 249q0 78 34 145.5t97.5 116.5t150.5 77.5t196 28.5q100 0 187 -23.5t153.5 -73.5t108.5 -128t52 -184h-194q-6 70 -34 116
t-70 73.5t-94 38.5t-109 11q-133 0 -210 -53t-77 -145q0 -98 53 -145.5t170 -80.5l223 -61q90 -25 161 -57.5t119 -80.5t72.5 -111.5t24.5 -149.5q0 -92 -42 -166t-112.5 -126t-165 -80t-198.5 -28t-198.5 25.5t-168 79t-121 135.5t-55.5 197z" />
    <glyph glyph-name="T" unicode="T" horiz-adv-x="1107" 
d="M41 1219v174h1026v-174h-416v-1219h-194v1219h-416z" />
    <glyph glyph-name="U" unicode="U" horiz-adv-x="1400" 
d="M176 496v897h195v-912q0 -160 85 -251t244 -91q160 0 246 91.5t86 250.5v912h193v-897q0 -123 -37 -220.5t-105.5 -165t-166 -104.5t-216.5 -37t-216 37t-165.5 104.5t-105.5 165t-37 220.5z" />
    <glyph glyph-name="V" unicode="V" horiz-adv-x="1261" 
d="M72 1393h209l346 -1164h8l346 1164h209l-451 -1393h-217z" />
    <glyph glyph-name="W" unicode="W" horiz-adv-x="1908" 
d="M86 1393h207l272 -1174h8l273 1174h217l272 -1174h8l273 1174h207l-361 -1393h-243l-261 1120h-8l-260 -1120h-244z" />
    <glyph glyph-name="X" unicode="X" horiz-adv-x="1200" 
d="M53 0l445 715l-420 678h213l309 -514l315 514h213l-423 -678l440 -715h-217l-328 545l-332 -545h-215z" />
    <glyph glyph-name="Y" unicode="Y" horiz-adv-x="1206" 
d="M43 1393h213l348 -648l354 648h207l-465 -840v-553h-194v555z" />
    <glyph glyph-name="Z" unicode="Z" horiz-adv-x="1214" 
d="M100 0v174l779 1045h-746v174h967v-174l-776 -1045h774v-174h-998z" />
    <glyph glyph-name="bracketleft" unicode="[" horiz-adv-x="710" 
d="M184 -348v1814h430v-151h-256v-1512h256v-151h-430z" />
    <glyph glyph-name="backslash" unicode="\" horiz-adv-x="933" 
d="M53 1393h189l639 -1393h-189z" />
    <glyph glyph-name="bracketright" unicode="]" horiz-adv-x="710" 
d="M96 -197h256v1512h-256v151h430v-1814h-430v151z" />
    <glyph glyph-name="asciicircum" unicode="^" 
d="M113 598l424 795h155l424 -795h-172l-332 619l-325 -619h-174z" />
    <glyph glyph-name="underscore" unicode="_" horiz-adv-x="1269" 
d="M154 -113h962v-123h-962v123z" />
    <glyph glyph-name="grave" unicode="`" horiz-adv-x="614" 
d="M14 1423h215l162 -249h-160z" />
    <glyph glyph-name="a" unicode="a" horiz-adv-x="1128" 
d="M104 287q0 123 78 211t234 102l340 31v84q0 61 -15.5 101t-44 63.5t-68.5 33t-89 9.5q-98 0 -156.5 -44t-58.5 -145h-185q0 74 32 135.5t86 106.5t127 69.5t157 24.5t156.5 -21.5t126 -64.5t83 -110.5t29.5 -159.5v-555h156v-158h-312l-4 193h-8q-43 -111 -127 -164.5
t-201 -53.5q-78 0 -141 24t-109 71q-41 41 -63.5 98t-22.5 119zM299 262q0 -72 50 -105.5t138 -33.5q125 0 197 89t72 230v47l-371 -34q-57 -4 -71.5 -30t-14.5 -71v-92z" />
    <glyph glyph-name="b" unicode="b" horiz-adv-x="1218" 
d="M170 0v1393h184v-519q49 94 132 144.5t202 50.5q104 0 182 -43t129.5 -116.5t77 -174t25.5 -213.5q0 -115 -25.5 -214t-77 -173t-129 -117t-182.5 -43q-119 0 -202 50.5t-132 144.5v-170h-184zM354 434q0 -135 74 -223t213 -88q117 0 191.5 65.5t74.5 171.5v324
q0 106 -74.5 172t-191.5 66q-139 0 -213 -88.5t-74 -223.5v-176z" />
    <glyph glyph-name="c" unicode="c" horiz-adv-x="1093" 
d="M117 514q0 125 29.5 228.5t87 175t141.5 111.5t190 40q82 0 155 -21.5t128 -66.5t90 -114.5t43 -164.5h-184q-6 63 -26.5 105.5t-53.5 68t-75 36t-87 10.5q-47 0 -90 -15.5t-78 -46.5t-55.5 -77t-20.5 -107v-307q0 -55 19.5 -101.5t53.5 -78t78 -49t95 -17.5
q102 0 170 55t78 172h184q-10 -96 -49 -166.5t-96.5 -117t-130 -69t-152.5 -22.5q-115 0 -197.5 40t-138 113t-82 171t-26.5 215z" />
    <glyph glyph-name="d" unicode="d" horiz-adv-x="1218" 
d="M117 522q0 113 25.5 213.5t76.5 174t129 116.5t182 43q117 0 201 -50t133 -145v519h185v-1393h-185v170q-49 -94 -131 -144.5t-198 -50.5q-106 0 -184.5 43t-130.5 117t-77.5 173.5t-25.5 213.5zM311 360q0 -53 20.5 -97t56.5 -74.5t84 -48t106 -17.5q139 0 212.5 88
t73.5 223v176q0 135 -73.5 223.5t-212.5 88.5q-57 0 -105.5 -17.5t-84.5 -48.5t-56.5 -75t-20.5 -97v-324z" />
    <glyph glyph-name="e" unicode="e" horiz-adv-x="1122" 
d="M115 522q0 119 29.5 220.5t88 173t141.5 112.5t191 41q113 0 197 -39t139 -106.5t83 -158.5t28 -196v-98h-703v-111q0 -57 21.5 -101t58.5 -74.5t83 -46t95 -15.5q98 0 170 50t82 159h185q-6 -84 -44 -149.5t-98.5 -111.5t-136.5 -71t-160 -25q-113 0 -197.5 41t-141 113
t-84 172t-27.5 221zM309 618h512v58q0 57 -20.5 103t-56 78t-82 48.5t-97.5 16.5t-97 -16.5t-82 -48.5t-56.5 -78t-20.5 -103v-58z" />
    <glyph glyph-name="f" unicode="f" horiz-adv-x="710" 
d="M70 887v157h176v349h422v-158h-240v-191h219v-157h-219v-887h-182v887h-176z" />
    <glyph glyph-name="g" unicode="g" horiz-adv-x="1218" 
d="M117 522q0 113 25.5 213.5t76.5 174t129 116.5t182 43q117 0 201 -50t133 -145v170h185v-1024q0 -109 -39 -187.5t-102.5 -130.5t-144.5 -76.5t-165 -24.5q-82 0 -156.5 16t-135 54t-100.5 100.5t-52 156.5h184q10 -90 76.5 -135t175.5 -45q53 0 103 15.5t88 49t60.5 87
t22.5 129.5v141q-49 -94 -131 -144.5t-198 -50.5q-106 0 -184.5 43t-130.5 117t-77.5 173.5t-25.5 213.5zM311 360q0 -53 20.5 -97t56.5 -74.5t84 -48t106 -17.5q139 0 212.5 88t73.5 223v176q0 135 -73.5 223.5t-212.5 88.5q-57 0 -105.5 -17.5t-84.5 -48.5t-56.5 -75
t-20.5 -97v-324z" />
    <glyph glyph-name="h" unicode="h" horiz-adv-x="1167" 
d="M170 0v1393h184v-521q43 92 118 144.5t194 52.5q76 0 138 -20.5t107 -65.5t70 -115.5t25 -171.5v-696h-185v676q0 115 -44 180.5t-163 65.5q-57 0 -104 -22.5t-82 -64.5t-54.5 -99.5t-19.5 -125.5v-610h-184z" />
    <glyph glyph-name="i" unicode="i" horiz-adv-x="524" 
d="M166 1200v193h192v-193h-192zM170 0v1044h184v-1044h-184z" />
    <glyph glyph-name="j" unicode="j" horiz-adv-x="548" 
d="M-47 -190h242v1234h184v-1392h-426v158zM190 1200v193h193v-193h-193z" />
    <glyph glyph-name="k" unicode="k" horiz-adv-x="1069" 
d="M170 0v1393h184v-1393h-184zM356 584l410 460h223l-420 -460l449 -584h-211z" />
    <glyph glyph-name="l" unicode="l" horiz-adv-x="532" 
d="M174 0v1393h184v-1393h-184z" />
    <glyph glyph-name="m" unicode="m" horiz-adv-x="1736" 
d="M170 0v1044h184v-172q35 86 108 141.5t183 55.5q104 0 184 -52t115 -163q33 92 112 153.5t195 61.5q68 0 127.5 -20.5t103.5 -65.5t68.5 -115.5t24.5 -171.5v-696h-184v676q0 115 -44 180.5t-147 65.5q-49 0 -91 -22.5t-75 -64.5t-51 -99.5t-18 -125.5v-610h-185v676
q0 115 -44 180.5t-146 65.5q-49 0 -91 -22.5t-75 -64.5t-51.5 -99.5t-18.5 -125.5v-610h-184z" />
    <glyph glyph-name="n" unicode="n" horiz-adv-x="1167" 
d="M170 0v1044h184v-172q43 92 118 144.5t194 52.5q76 0 138 -20.5t107 -65.5t70 -115.5t25 -171.5v-696h-185v676q0 115 -44 180.5t-163 65.5q-57 0 -104 -22.5t-82 -64.5t-54.5 -99.5t-19.5 -125.5v-610h-184z" />
    <glyph glyph-name="o" unicode="o" horiz-adv-x="1167" 
d="M115 522q0 119 28.5 220.5t87 173t146.5 112.5t207 41t207 -41t146 -112.5t87 -173t29 -220.5q0 -121 -29 -221t-87 -172t-146.5 -113t-206.5 -41q-119 0 -207 41t-146.5 113t-87 172t-28.5 221zM309 360q0 -53 22.5 -97t59.5 -74.5t87 -48t106 -17.5q55 0 105 17.5
t87 48t59.5 74.5t22.5 97v324q0 53 -22.5 97t-59.5 75t-87 48.5t-105 17.5t-105.5 -17.5t-87.5 -48.5t-59.5 -75t-22.5 -97v-324z" />
    <glyph glyph-name="p" unicode="p" horiz-adv-x="1218" 
d="M170 -348v1392h184v-170q49 94 132 144.5t202 50.5q104 0 182 -43t129.5 -116.5t77 -174t25.5 -213.5q0 -115 -25.5 -214t-77 -173t-129 -117t-182.5 -43q-119 0 -202 50.5t-132 144.5v-518h-184zM354 434q0 -135 74 -223t213 -88q117 0 191.5 65.5t74.5 171.5v324
q0 106 -74.5 172t-191.5 66q-139 0 -213 -88.5t-74 -223.5v-176z" />
    <glyph glyph-name="q" unicode="q" horiz-adv-x="1218" 
d="M117 522q0 113 25.5 213.5t76.5 174t129 116.5t182 43q117 0 201 -50t133 -145v170h185v-1392h-185v518q-49 -94 -131 -144.5t-198 -50.5q-106 0 -184.5 43t-130.5 117t-77.5 173.5t-25.5 213.5zM311 360q0 -53 20.5 -97t56.5 -74.5t84 -48t106 -17.5q139 0 212.5 88
t73.5 223v176q0 135 -73.5 223.5t-212.5 88.5q-57 0 -105.5 -17.5t-84.5 -48.5t-56.5 -75t-20.5 -97v-324z" />
    <glyph glyph-name="r" unicode="r" horiz-adv-x="731" 
d="M170 0v1044h502v-159h-318v-885h-184z" />
    <glyph glyph-name="s" unicode="s" horiz-adv-x="1042" 
d="M102 330h185q4 -104 74.5 -155.5t166.5 -51.5q92 0 160 41t68 119q0 63 -41 101t-146 58l-172 35q-129 27 -198.5 99.5t-69.5 195.5q0 61 27.5 115.5t79 94.5t121 63.5t155.5 23.5q74 0 144.5 -19.5t126 -60.5t89 -104.5t35.5 -151.5h-184q-4 104 -64.5 146.5
t-144.5 42.5q-86 0 -145.5 -41t-59.5 -107q0 -61 35 -95t113 -50l176 -37q156 -33 231.5 -106.5t75.5 -200.5q0 -66 -29.5 -122.5t-85 -97t-131.5 -65.5t-168 -25q-88 0 -164.5 22.5t-134 67t-90.5 111t-35 154.5z" />
    <glyph glyph-name="t" unicode="t" horiz-adv-x="753" 
d="M70 887v157h176v349h182v-349h240v-157h-240v-729h240v-158h-422v887h-176z" />
    <glyph glyph-name="u" unicode="u" horiz-adv-x="1159" 
d="M162 348v696h184v-675q0 -113 44 -179.5t161 -66.5t185.5 87t68.5 224v610h184v-1044h-184v172q-43 -92 -115 -144.5t-190 -52.5q-72 0 -134.5 20.5t-107.5 65.5t-70.5 116t-25.5 171z" />
    <glyph glyph-name="v" unicode="v" horiz-adv-x="1040" 
d="M57 1044h199l262 -825h8l267 825h190l-375 -1044h-176z" />
    <glyph glyph-name="w" unicode="w" horiz-adv-x="1533" 
d="M68 1044h186l207 -817h8l184 817h224l192 -817h8l209 817h180l-305 -1044h-194l-197 846h-8l-199 -846h-190z" />
    <glyph glyph-name="x" unicode="x" horiz-adv-x="1040" 
d="M53 0l359 541l-328 503h205l229 -364l234 364h200l-327 -491l362 -553h-207l-262 414l-260 -414h-205z" />
    <glyph glyph-name="y" unicode="y" horiz-adv-x="1067" 
d="M61 1044h199l272 -817h9l280 817h191l-512 -1392h-357v158h240l66 190z" />
    <glyph glyph-name="z" unicode="z" horiz-adv-x="995" 
d="M98 0v158l561 729h-520v157h733v-157l-561 -729h574v-158h-787z" />
    <glyph glyph-name="braceleft" unicode="{" horiz-adv-x="790" 
d="M70 481v156h194v-156h-194zM264 -348v829h174v-678h256v-151h-430zM264 637v829h430v-151h-256v-678h-174z" />
    <glyph glyph-name="bar" unicode="|" horiz-adv-x="538" 
d="M182 -348v2089h174v-2089h-174z" />
    <glyph glyph-name="braceright" unicode="}" horiz-adv-x="790" 
d="M96 -197h256v678h174v-829h-430v151zM96 1315v151h430v-829h195v-156h-195v156h-174v678h-256z" />
    <glyph glyph-name="asciitilde" unicode="~" 
d="M92 428q0 113 76 184.5t194 71.5q37 0 68 -6t64.5 -18.5t72.5 -31t90 -44.5q45 -25 77 -41.5t55.5 -26.5t44 -14t45.5 -4q51 0 78.5 31.5t27.5 84.5h154q0 -113 -76 -184.5t-195 -71.5q-37 0 -67.5 6.5t-64.5 18.5t-72.5 30.5t-90.5 45.5q-47 25 -77.5 41t-54 26.5
t-44 14.5t-45.5 4q-51 0 -78.5 -32t-27.5 -85h-154z" />
    <glyph glyph-name="uni00A0" unicode="&#xa0;" horiz-adv-x="520" 
 />
    <glyph glyph-name="exclamdown" unicode="&#xa1;" horiz-adv-x="540" 
d="M158 819v225h225v-225h-225zM178 -348v723l41 305h103l40 -305v-723h-184z" />
    <glyph glyph-name="cent" unicode="&#xa2;" 
d="M186 514q0 231 97.5 377.5t279.5 171.5v170h135v-168q143 -16 240.5 -103.5t112.5 -259.5h-185q-10 100 -56 148.5t-112 62.5v-784q74 16 121 70.5t55 150.5h185q-10 -86 -42 -151.5t-80 -111.5t-109.5 -72.5t-129.5 -34.5v-168h-135v168q-96 12 -167.5 56t-118 114.5
t-69 163t-22.5 200.5zM381 369q0 -94 52 -156.5t130 -83.5v784q-76 -16 -129 -76.5t-53 -160.5v-307z" />
    <glyph glyph-name="sterling" unicode="&#xa3;" 
d="M111 0v162h184v485h-184v162h184v221q0 76 25.5 146.5t77 126t129 88t180.5 32.5q102 0 180 -32.5t129 -88t76.5 -128t25.5 -150.5h-184q0 117 -55.5 178.5t-171.5 61.5q-117 0 -172.5 -61.5t-55.5 -178.5v-215h334v-162h-334v-485h613v-162h-981z" />
    <glyph glyph-name="currency" unicode="&#xa4;" 
d="M117 213l110 111q-86 121 -86 274q0 78 23.5 146.5t64.5 125.5l-112 115l110 111l113 -115q59 41 127 64.5t145 23.5q76 0 144.5 -23.5t128.5 -64.5l114 115l111 -111l-115 -115q41 -59 64.5 -127.5t23.5 -144.5q0 -78 -23.5 -145.5t-64.5 -126.5l115 -113l-111 -109
l-112 111q-59 -41 -128 -64.5t-147 -23.5q-154 0 -274 86l-111 -111zM295 598q0 -66 24.5 -124t67.5 -101t101.5 -67.5t123.5 -24.5q66 0 124.5 24.5t101.5 67.5t67.5 101t24.5 124t-24.5 124t-67.5 101t-101.5 67.5t-124.5 24.5t-124 -24.5t-101 -67.5t-67.5 -101
t-24.5 -124z" />
    <glyph glyph-name="yen" unicode="&#xa5;" 
d="M104 1393h201l309 -635l314 635h198l-340 -676h267v-121h-346v-121h346v-121h-346v-354h-185v354h-348v121h348v121h-348v121h266z" />
    <glyph glyph-name="brokenbar" unicode="&#xa6;" horiz-adv-x="546" 
d="M186 -348v854h174v-854h-174zM186 887v854h174v-854h-174z" />
    <glyph glyph-name="section" unicode="&#xa7;" horiz-adv-x="1198" 
d="M213 -186h647v319h-645v1260h827v-160h-643v-320h645v-1259h-831v160zM399 293h461v461h-461v-461z" />
    <glyph glyph-name="dieresis" unicode="&#xa8;" horiz-adv-x="679" 
d="M37 1212v181h180v-181h-180zM397 1212v181h181v-181h-181z" />
    <glyph glyph-name="copyright" unicode="&#xa9;" horiz-adv-x="1691" 
d="M119 696q0 150 57 283t155.5 231.5t230.5 155.5t284 57q150 0 283 -57t231 -155.5t155.5 -231.5t57.5 -283q0 -152 -57.5 -283.5t-155.5 -230t-231.5 -156t-282.5 -57.5q-152 0 -284 57.5t-230.5 156t-155.5 230t-57 283.5zM252 696q0 -125 46 -233.5t126 -188
t188.5 -126t233.5 -46.5t233.5 46.5t188.5 126t126 188t46 233.5t-46 233.5t-126 188.5t-188.5 126t-233.5 46t-233.5 -46t-188.5 -126t-126 -188.5t-46 -233.5zM539 690q0 172 83 275.5t230 103.5q113 0 192.5 -62.5t90.5 -187.5h-136q-8 80 -52 109.5t-103 29.5
q-31 0 -59.5 -10t-51 -30.5t-37 -49t-14.5 -67.5v-209q0 -72 49 -115t115 -43q63 0 108 36t52 110h135q-8 -66 -36 -114t-68 -80t-90 -47t-101 -15q-76 0 -133.5 27.5t-96 76.5t-58 115.5t-19.5 146.5z" />
    <glyph glyph-name="ordfeminine" unicode="&#xaa;" horiz-adv-x="817" 
d="M135 827q0 72 44 116t132 54l148 15v35q0 41 -21.5 59t-58.5 18q-39 0 -63.5 -17t-24.5 -58h-138q4 90 67.5 135t162.5 45q98 0 154.5 -47t56.5 -140v-260h92v-106h-219l-2 80h-6q-51 -92 -152 -92q-78 0 -125 46t-47 117zM276 811q0 -43 68 -43q53 0 84 34t31 97v14
l-142 -12q-41 -2 -41 -43v-47z" />
    <glyph glyph-name="guillemotleft" unicode="&#xab;" horiz-adv-x="1017" 
d="M119 526l219 381h164l-199 -381l199 -381h-164zM502 526l219 381h164l-199 -381l199 -381h-164z" />
    <glyph glyph-name="logicalnot" unicode="&#xac;" 
d="M84 659v148h1044v-561h-151v413h-893z" />
    <glyph glyph-name="uni00AD" unicode="&#xad;" horiz-adv-x="884" 
d="M156 471v168h573v-168h-573z" />
    <glyph glyph-name="registered" unicode="&#xae;" horiz-adv-x="1691" 
d="M119 696q0 150 57 283t155.5 231.5t230.5 155.5t284 57q150 0 283 -57t231 -155.5t155.5 -231.5t57.5 -283q0 -152 -57.5 -283.5t-155.5 -230t-231.5 -156t-282.5 -57.5q-152 0 -284 57.5t-230.5 156t-155.5 230t-57 283.5zM252 696q0 -125 46 -233.5t126 -188
t188.5 -126t233.5 -46.5t233.5 46.5t188.5 126t126 188t46 233.5t-46 233.5t-126 188.5t-188.5 126t-233.5 46t-233.5 -46t-188.5 -126t-126 -188.5t-46 -233.5zM586 348v696h319q106 0 163.5 -57t57.5 -164q0 -92 -44 -144t-107 -69l153 -262h-147l-143 256h-119v-256h-133
zM719 711h194q39 0 57.5 23.5t18.5 56.5v69q0 76 -76 76h-194v-225z" />
    <glyph glyph-name="macron" unicode="&#xaf;" horiz-adv-x="614" 
d="M10 1251v121h592v-121h-592z" />
    <glyph glyph-name="degree" unicode="&#xb0;" horiz-adv-x="806" 
d="M117 1137q0 59 22.5 111t61.5 91t91 61.5t111 22.5t111.5 -22.5t91.5 -61.5t61.5 -91t22.5 -111t-22.5 -111.5t-61.5 -91.5t-91 -61.5t-112 -22.5q-59 0 -111 22.5t-91 61.5t-61.5 91.5t-22.5 111.5zM219 1137q0 -78 53.5 -131.5t130.5 -53.5q78 0 131.5 53.5t53.5 131.5
t-53.5 131t-131.5 53t-131 -53t-53 -131z" />
    <glyph glyph-name="plusminus" unicode="&#xb1;" 
d="M92 0v147h1045v-147h-1045zM92 571v148h445v325h155v-325h445v-148h-445v-325h-155v325h-445z" />
    <glyph glyph-name="uni00B2" unicode="&#xb2;" horiz-adv-x="813" 
d="M143 852v123l295 266q35 33 55.5 60.5t20.5 70.5t-28.5 69.5t-78.5 26.5q-53 0 -84.5 -29.5t-31.5 -88.5h-144q0 111 74 173t191 62t180 -60.5t63 -150.5q0 -78 -33.5 -128t-85.5 -93l-206 -174v-4h340v-123h-527z" />
    <glyph glyph-name="uni00B3" unicode="&#xb3;" horiz-adv-x="790" 
d="M123 1065h143q4 -61 39 -89t88 -28q55 0 88 26.5t33 65.5v62q0 63 -65 63h-152v111h144q35 0 48 16.5t13 42.5v56q0 41 -29.5 61.5t-74.5 20.5q-49 0 -80 -25t-35 -76h-144q0 100 74 156.5t187 56.5q115 0 183 -54t68 -140q0 -121 -112 -170q61 -23 93 -64t32 -110
q0 -96 -76 -153.5t-193 -57.5q-55 0 -104 14t-87 42t-59.5 71t-21.5 102z" />
    <glyph glyph-name="acute" unicode="&#xb4;" horiz-adv-x="614" 
d="M223 1174l162 249h215l-217 -249h-160z" />
    <glyph glyph-name="mu" unicode="&#xb5;" horiz-adv-x="1224" 
d="M195 -348v1392h184v-698q0 -104 47 -163.5t158 -59.5q117 0 185.5 87t68.5 224v610h184v-1044h-184v172q-43 -92 -114 -144.5t-181 -52.5q-55 0 -97.5 19.5t-66.5 48.5v-391h-184z" />
    <glyph glyph-name="paragraph" unicode="&#xb6;" horiz-adv-x="1277" 
d="M111 696v697h956v-1577h-174v1429h-260v-1429h-174v880h-348z" />
    <glyph glyph-name="periodcentered" unicode="&#xb7;" horiz-adv-x="536" 
d="M156 412v225h225v-225h-225z" />
    <glyph glyph-name="cedilla" unicode="&#xb8;" horiz-adv-x="614" 
d="M164 -215h143v143h144v-276h-287v133z" />
    <glyph glyph-name="uni00B9" unicode="&#xb9;" horiz-adv-x="624" 
d="M92 1331v115h227v123h143v-717h-143v479h-227z" />
    <glyph glyph-name="ordmasculine" unicode="&#xba;" horiz-adv-x="763" 
d="M127 946q0 129 66.5 206t187.5 77q123 0 189.5 -77t66.5 -206t-66.5 -205.5t-189.5 -76.5q-121 0 -187.5 76.5t-66.5 205.5zM270 866q0 -47 32 -73.5t79 -26.5t79 26.5t32 73.5v160q0 47 -32 73.5t-79 26.5t-79 -26.5t-32 -73.5v-160z" />
    <glyph glyph-name="guillemotright" unicode="&#xbb;" horiz-adv-x="1017" 
d="M133 145l199 381l-199 381h164l219 -381l-219 -381h-164zM516 145l199 381l-199 381h164l219 -381l-219 -381h-164z" />
    <glyph glyph-name="onequarter" unicode="&#xbc;" horiz-adv-x="1562" 
d="M88 1155v115h227v123h144v-717h-144v479h-227zM258 0l872 1393h156l-872 -1393h-156zM895 160v114l303 443h152v-443h129v-114h-129v-160h-140v160h-315zM1020 274h190v271h-4z" />
    <glyph glyph-name="onehalf" unicode="&#xbd;" horiz-adv-x="1587" 
d="M88 1155v115h227v123h144v-717h-144v479h-227zM258 0l872 1393h156l-872 -1393h-156zM958 0v123l295 266q35 33 55.5 60.5t20.5 70.5t-28.5 69.5t-77.5 26.5q-53 0 -85 -29.5t-32 -88.5h-143q0 111 73.5 173t190.5 62t180 -60.5t63 -150.5q0 -78 -33.5 -128t-84.5 -93
l-207 -174v-4h340v-123h-527z" />
    <glyph glyph-name="threequarters" unicode="&#xbe;" horiz-adv-x="1609" 
d="M100 889h144q4 -61 38.5 -89t88.5 -28q55 0 88 26.5t33 65.5v62q0 63 -66 63h-152v111h144q35 0 48 16.5t13 42.5v55q0 41 -29.5 61.5t-74.5 20.5q-49 0 -80 -24.5t-35 -75.5h-143q0 100 73.5 156.5t186.5 56.5q115 0 183.5 -54.5t68.5 -140.5q0 -121 -113 -170
q61 -23 93 -63.5t32 -110.5q0 -96 -76 -153.5t-192 -57.5q-55 0 -104.5 14.5t-87.5 42t-59.5 70.5t-21.5 103zM324 0l872 1393h156l-873 -1393h-155zM942 160v114l303 443h152v-443h129v-114h-129v-160h-140v160h-315zM1067 274h190v271h-4z" />
    <glyph glyph-name="questiondown" unicode="&#xbf;" horiz-adv-x="1013" 
d="M80 -6q0 68 13 120t37 94t55.5 76.5t66.5 65.5q45 39 80 71t59.5 60.5t37.5 61t13 75.5v62h185v-62q0 -59 -12.5 -104t-37 -84t-62.5 -76t-87 -75q-86 -70 -125 -132.5t-39 -148.5q0 -104 66.5 -161.5t169.5 -57.5q111 0 180.5 61.5t79.5 177.5h184q-6 -92 -44 -165.5
t-98.5 -125t-138 -79t-165.5 -27.5q-90 0 -167 26.5t-132.5 76t-87 118t-31.5 152.5zM422 819v225h225v-225h-225z" />
    <glyph glyph-name="Agrave" unicode="&#xc0;" horiz-adv-x="1292" 
d="M55 0l482 1393h217l483 -1393h-205l-114 344h-547l-115 -344h-201zM422 504h444l-217 672h-8zM438 1779h215l162 -249h-160z" />
    <glyph glyph-name="Aacute" unicode="&#xc1;" horiz-adv-x="1292" 
d="M55 0l482 1393h217l483 -1393h-205l-114 344h-547l-115 -344h-201zM422 504h444l-217 672h-8zM465 1530l162 249h215l-217 -249h-160z" />
    <glyph glyph-name="Acircumflex" unicode="&#xc2;" horiz-adv-x="1292" 
d="M55 0l482 1393h217l483 -1393h-205l-114 344h-547l-115 -344h-201zM373 1530l170 249h211l170 -249h-160l-117 149l-117 -149h-157zM422 504h444l-217 672h-8z" />
    <glyph glyph-name="Atilde" unicode="&#xc3;" horiz-adv-x="1292" 
d="M55 0l482 1393h217l483 -1393h-205l-114 344h-547l-115 -344h-201zM332 1567q0 92 48 143t134 51q43 0 81 -15.5t73 -33.5t65.5 -33.5t57.5 -15.5q68 0 67 78h103q0 -92 -48.5 -143.5t-134.5 -51.5q-43 0 -80.5 15.5t-72.5 34t-66 33.5t-57 15q-68 0 -68 -77h-102z
M422 504h444l-217 672h-8z" />
    <glyph glyph-name="Adieresis" unicode="&#xc4;" horiz-adv-x="1292" 
d="M55 0l482 1393h217l483 -1393h-205l-114 344h-547l-115 -344h-201zM367 1568v181h180v-181h-180zM422 504h444l-217 672h-8zM727 1568v181h181v-181h-181z" />
    <glyph glyph-name="Aring" unicode="&#xc5;" horiz-adv-x="1292" 
d="M55 0l482 1393h217l483 -1393h-205l-114 344h-547l-115 -344h-201zM422 504h444l-217 672h-8zM463 1712q0 68 48 122t134 54t134 -54t48 -122q0 -70 -48 -123t-134 -53t-134 53.5t-48 122.5zM553 1712q0 -37 25.5 -64.5t66.5 -27.5t65.5 27.5t24.5 64.5t-24.5 63.5
t-65.5 26.5t-66.5 -26.5t-25.5 -63.5z" />
    <glyph glyph-name="AE" unicode="&#xc6;" horiz-adv-x="1929" 
d="M-2 0l686 1393h1124v-174h-708v-422h614v-174h-614v-449h708v-174h-903v346h-522l-168 -346h-217zM461 506h444v713h-98z" />
    <glyph glyph-name="Ccedilla" unicode="&#xc7;" horiz-adv-x="1314" 
d="M125 684q0 170 35 307t106.5 233.5t180 147.5t253.5 51q100 0 187.5 -29.5t153 -85t105.5 -134t46 -177.5h-195q-14 123 -96 189.5t-219 66.5q-74 0 -136.5 -25.5t-108.5 -70.5t-71.5 -107.5t-25.5 -138.5v-430q0 -74 27.5 -136t76 -108.5t113 -72t137.5 -25.5
q139 0 225.5 62.5t100.5 204.5h194q-6 -98 -48 -179.5t-110.5 -137.5t-161 -88t-198.5 -32q-139 0 -245.5 50.5t-178 144.5t-109.5 225t-38 295zM481 -215h144v143h143v-276h-287v133z" />
    <glyph glyph-name="Egrave" unicode="&#xc8;" horiz-adv-x="1232" 
d="M188 0v1393h924v-174h-729v-422h635v-174h-635v-449h729v-174h-924zM399 1779h215l162 -249h-160z" />
    <glyph glyph-name="Eacute" unicode="&#xc9;" horiz-adv-x="1232" 
d="M188 0v1393h924v-174h-729v-422h635v-174h-635v-449h729v-174h-924zM499 1530l162 249h215l-217 -249h-160z" />
    <glyph glyph-name="Ecircumflex" unicode="&#xca;" horiz-adv-x="1232" 
d="M188 0v1393h924v-174h-729v-422h635v-174h-635v-449h729v-174h-924zM383 1530l170 249h211l170 -249h-160l-117 149l-117 -149h-157z" />
    <glyph glyph-name="Edieresis" unicode="&#xcb;" horiz-adv-x="1232" 
d="M188 0v1393h924v-174h-729v-422h635v-174h-635v-449h729v-174h-924zM389 1568v181h180v-181h-180zM749 1568v181h181v-181h-181z" />
    <glyph glyph-name="Igrave" unicode="&#xcc;" horiz-adv-x="571" 
d="M34 1779h215l162 -249h-160zM188 0v1393h195v-1393h-195z" />
    <glyph glyph-name="Iacute" unicode="&#xcd;" horiz-adv-x="571" 
d="M162 1530l162 249h215l-217 -249h-160zM188 0v1393h195v-1393h-195z" />
    <glyph glyph-name="Icircumflex" unicode="&#xce;" horiz-adv-x="571" 
d="M13 1530l170 249h211l170 -249h-160l-117 149l-117 -149h-157zM188 0v1393h195v-1393h-195z" />
    <glyph glyph-name="Idieresis" unicode="&#xcf;" horiz-adv-x="571" 
d="M17 1568v181h180v-181h-180zM188 0v1393h195v-1393h-195zM377 1568v181h181v-181h-181z" />
    <glyph glyph-name="Eth" unicode="&#xd0;" horiz-adv-x="1380" 
d="M55 623v147h148v623h450q315 0 456.5 -173t141.5 -524q0 -350 -141 -523t-457 -173h-450v623h-148zM397 174h256q197 0 290 82t93 236v409q0 154 -93 236t-290 82h-256v-449h320v-147h-320v-449z" />
    <glyph glyph-name="Ntilde" unicode="&#xd1;" horiz-adv-x="1423" 
d="M188 0v1393h275l575 -1157h9v1157h188v-1393h-274l-576 1163h-8v-1163h-189zM397 1567q0 92 48 143t134 51q43 0 81 -15.5t73 -33.5t65.5 -33.5t57.5 -15.5q68 0 67 78h103q0 -92 -48.5 -143.5t-134.5 -51.5q-43 0 -80.5 15.5t-72.5 34t-66 33.5t-57 15q-68 0 -68 -77
h-102z" />
    <glyph glyph-name="Ograve" unicode="&#xd2;" horiz-adv-x="1445" 
d="M125 696q0 164 35 298t107.5 229.5t185 147.5t270.5 52t270.5 -52t185 -147.5t107.5 -229.5t35 -298t-35 -298t-107.5 -229t-185 -147.5t-270.5 -52.5t-270.5 52.5t-185 147.5t-107.5 229t-35 298zM340 481q0 -80 29.5 -142.5t82 -107.5t122 -68.5t149.5 -23.5
t149.5 23.5t122 68.5t82 107.5t29.5 142.5v430q0 80 -29.5 142.5t-82 107.5t-122 68.5t-149.5 23.5t-149.5 -23.5t-122 -68.5t-82 -107.5t-29.5 -142.5v-430zM454 1802h215l162 -249h-160z" />
    <glyph glyph-name="Oacute" unicode="&#xd3;" horiz-adv-x="1445" 
d="M125 696q0 164 35 298t107.5 229.5t185 147.5t270.5 52t270.5 -52t185 -147.5t107.5 -229.5t35 -298t-35 -298t-107.5 -229t-185 -147.5t-270.5 -52.5t-270.5 52.5t-185 147.5t-107.5 229t-35 298zM340 481q0 -80 29.5 -142.5t82 -107.5t122 -68.5t149.5 -23.5
t149.5 23.5t122 68.5t82 107.5t29.5 142.5v430q0 80 -29.5 142.5t-82 107.5t-122 68.5t-149.5 23.5t-149.5 -23.5t-122 -68.5t-82 -107.5t-29.5 -142.5v-430zM606 1553l162 249h215l-217 -249h-160z" />
    <glyph glyph-name="Ocircumflex" unicode="&#xd4;" horiz-adv-x="1445" 
d="M125 696q0 164 35 298t107.5 229.5t185 147.5t270.5 52t270.5 -52t185 -147.5t107.5 -229.5t35 -298t-35 -298t-107.5 -229t-185 -147.5t-270.5 -52.5t-270.5 52.5t-185 147.5t-107.5 229t-35 298zM340 481q0 -80 29.5 -142.5t82 -107.5t122 -68.5t149.5 -23.5
t149.5 23.5t122 68.5t82 107.5t29.5 142.5v430q0 80 -29.5 142.5t-82 107.5t-122 68.5t-149.5 23.5t-149.5 -23.5t-122 -68.5t-82 -107.5t-29.5 -142.5v-430zM449 1553l170 249h211l170 -249h-160l-117 149l-117 -149h-157z" />
    <glyph glyph-name="Otilde" unicode="&#xd5;" horiz-adv-x="1445" 
d="M125 696q0 164 35 298t107.5 229.5t185 147.5t270.5 52t270.5 -52t185 -147.5t107.5 -229.5t35 -298t-35 -298t-107.5 -229t-185 -147.5t-270.5 -52.5t-270.5 52.5t-185 147.5t-107.5 229t-35 298zM340 481q0 -80 29.5 -142.5t82 -107.5t122 -68.5t149.5 -23.5
t149.5 23.5t122 68.5t82 107.5t29.5 142.5v430q0 80 -29.5 142.5t-82 107.5t-122 68.5t-149.5 23.5t-149.5 -23.5t-122 -68.5t-82 -107.5t-29.5 -142.5v-430zM410 1567q0 92 48 143t134 51q43 0 81 -15.5t73 -33.5t65.5 -33.5t57.5 -15.5q68 0 67 78h103q0 -92 -48.5 -143.5
t-134.5 -51.5q-43 0 -80.5 15.5t-72.5 34t-66 33.5t-57 15q-68 0 -68 -77h-102z" />
    <glyph glyph-name="Odieresis" unicode="&#xd6;" horiz-adv-x="1445" 
d="M125 696q0 164 35 298t107.5 229.5t185 147.5t270.5 52t270.5 -52t185 -147.5t107.5 -229.5t35 -298t-35 -298t-107.5 -229t-185 -147.5t-270.5 -52.5t-270.5 52.5t-185 147.5t-107.5 229t-35 298zM340 481q0 -80 29.5 -142.5t82 -107.5t122 -68.5t149.5 -23.5
t149.5 23.5t122 68.5t82 107.5t29.5 142.5v430q0 80 -29.5 142.5t-82 107.5t-122 68.5t-149.5 23.5t-149.5 -23.5t-122 -68.5t-82 -107.5t-29.5 -142.5v-430zM451 1591v181h180v-181h-180zM811 1591v181h181v-181h-181z" />
    <glyph glyph-name="multiply" unicode="&#xd7;" 
d="M90 111l412 409l-412 412l113 112l409 -411l412 411l113 -112l-412 -412l412 -409l-111 -111l-412 412l-411 -414z" />
    <glyph glyph-name="Oslash" unicode="&#xd8;" horiz-adv-x="1445" 
d="M125 696q0 164 35 298t107.5 229.5t185 147.5t270.5 52q80 0 147.5 -14t126.5 -41l82 164l115 -55l-88 -177q111 -94 163 -248.5t52 -355.5q0 -164 -35 -298t-107.5 -229t-185 -147.5t-270.5 -52.5q-74 0 -138.5 11.5t-119.5 33.5l-76 -153l-115 55l80 162
q-119 92 -174 250.5t-55 367.5zM340 481q0 -74 25.5 -133t72.5 -104l480 966q-43 20 -92.5 31.5t-102.5 11.5q-80 0 -149.5 -23.5t-122 -68.5t-82 -107.5t-29.5 -142.5v-430zM545 174q82 -35 178 -35q80 0 149.5 23.5t122 68.5t82 107.5t29.5 142.5v430q0 131 -84 222z" />
    <glyph glyph-name="Ugrave" unicode="&#xd9;" horiz-adv-x="1400" 
d="M176 496v897h195v-912q0 -160 85 -251t244 -91q160 0 246 91.5t86 250.5v912h193v-897q0 -123 -37 -220.5t-105.5 -165t-166 -104.5t-216.5 -37t-216 37t-165.5 104.5t-105.5 165t-37 220.5zM460 1779h215l162 -249h-160z" />
    <glyph glyph-name="Uacute" unicode="&#xda;" horiz-adv-x="1400" 
d="M176 496v897h195v-912q0 -160 85 -251t244 -91q160 0 246 91.5t86 250.5v912h193v-897q0 -123 -37 -220.5t-105.5 -165t-166 -104.5t-216.5 -37t-216 37t-165.5 104.5t-105.5 165t-37 220.5zM569 1530l162 249h215l-217 -249h-160z" />
    <glyph glyph-name="Ucircumflex" unicode="&#xdb;" horiz-adv-x="1400" 
d="M176 496v897h195v-912q0 -160 85 -251t244 -91q160 0 246 91.5t86 250.5v912h193v-897q0 -123 -37 -220.5t-105.5 -165t-166 -104.5t-216.5 -37t-216 37t-165.5 104.5t-105.5 165t-37 220.5zM426 1530l170 249h211l170 -249h-160l-117 149l-117 -149h-157z" />
    <glyph glyph-name="Udieresis" unicode="&#xdc;" horiz-adv-x="1400" 
d="M176 496v897h195v-912q0 -160 85 -251t244 -91q160 0 246 91.5t86 250.5v912h193v-897q0 -123 -37 -220.5t-105.5 -165t-166 -104.5t-216.5 -37t-216 37t-165.5 104.5t-105.5 165t-37 220.5zM430 1568v181h180v-181h-180zM790 1568v181h181v-181h-181z" />
    <glyph glyph-name="Yacute" unicode="&#xdd;" horiz-adv-x="1206" 
d="M43 1393h213l348 -648l354 648h207l-465 -840v-553h-194v555zM516 1489l162 249h215l-217 -249h-160z" />
    <glyph glyph-name="Thorn" unicode="&#xde;" horiz-adv-x="1247" 
d="M188 0v1393h195v-260h332q125 0 203.5 -24t134.5 -81q53 -55 75.5 -138t22.5 -181q0 -96 -27.5 -181.5t-87.5 -144.5q-115 -113 -319 -113h-334v-270h-195zM383 444h408q70 0 112.5 45.5t42.5 114.5v203q0 70 -41 110.5t-114 40.5h-408v-514z" />
    <glyph glyph-name="germandbls" unicode="&#xdf;" horiz-adv-x="1132" 
d="M170 0v1044q0 72 29.5 140.5t85 122t133.5 85t174 31.5t171 -28.5t126 -77.5t77.5 -113.5t26.5 -136.5q0 -139 -50 -213t-152 -121q102 -31 162.5 -111.5t60.5 -232.5q0 -96 -34 -174t-96.5 -132t-150.5 -84t-194 -30h-21v160h14q129 0 209 54.5t80 148.5v178
q0 63 -32.5 104t-108.5 41h-162v158h141q76 0 109 40t33 103v156q0 41 -17.5 69.5t-46 47t-66.5 28t-79 9.5q-49 0 -92 -13.5t-75 -41t-51.5 -68.5t-19.5 -99v-1044h-184z" />
    <glyph glyph-name="agrave" unicode="&#xe0;" horiz-adv-x="1128" 
d="M104 287q0 123 78 211t234 102l340 31v84q0 61 -15.5 101t-44 63.5t-68.5 33t-89 9.5q-98 0 -156.5 -44t-58.5 -145h-185q0 74 32 135.5t86 106.5t127 69.5t157 24.5t156.5 -21.5t126 -64.5t83 -110.5t29.5 -159.5v-555h156v-158h-312l-4 193h-8q-43 -111 -127 -164.5
t-201 -53.5q-78 0 -141 24t-109 71q-41 41 -63.5 98t-22.5 119zM233 1423h215l162 -249h-160zM299 262q0 -72 50 -105.5t138 -33.5q125 0 197 89t72 230v47l-371 -34q-57 -4 -71.5 -30t-14.5 -71v-92z" />
    <glyph glyph-name="aacute" unicode="&#xe1;" horiz-adv-x="1128" 
d="M104 287q0 123 78 211t234 102l340 31v84q0 61 -15.5 101t-44 63.5t-68.5 33t-89 9.5q-98 0 -156.5 -44t-58.5 -145h-185q0 74 32 135.5t86 106.5t127 69.5t157 24.5t156.5 -21.5t126 -64.5t83 -110.5t29.5 -159.5v-555h156v-158h-312l-4 193h-8q-43 -111 -127 -164.5
t-201 -53.5q-78 0 -141 24t-109 71q-41 41 -63.5 98t-22.5 119zM299 262q0 -72 50 -105.5t138 -33.5q125 0 197 89t72 230v47l-371 -34q-57 -4 -71.5 -30t-14.5 -71v-92zM444 1174l162 249h215l-217 -249h-160z" />
    <glyph glyph-name="acircumflex" unicode="&#xe2;" horiz-adv-x="1128" 
d="M104 287q0 123 78 211t234 102l340 31v84q0 61 -15.5 101t-44 63.5t-68.5 33t-89 9.5q-98 0 -156.5 -44t-58.5 -145h-185q0 74 32 135.5t86 106.5t127 69.5t157 24.5t156.5 -21.5t126 -64.5t83 -110.5t29.5 -159.5v-555h156v-158h-312l-4 193h-8q-43 -111 -127 -164.5
t-201 -53.5q-78 0 -141 24t-109 71q-41 41 -63.5 98t-22.5 119zM260 1174l170 249h211l170 -249h-160l-117 149l-117 -149h-157zM299 262q0 -72 50 -105.5t138 -33.5q125 0 197 89t72 230v47l-371 -34q-57 -4 -71.5 -30t-14.5 -71v-92z" />
    <glyph glyph-name="atilde" unicode="&#xe3;" horiz-adv-x="1128" 
d="M104 287q0 123 78 211t234 102l340 31v84q0 61 -15.5 101t-44 63.5t-68.5 33t-89 9.5q-98 0 -156.5 -44t-58.5 -145h-185q0 74 32 135.5t86 106.5t127 69.5t157 24.5t156.5 -21.5t126 -64.5t83 -110.5t29.5 -159.5v-555h156v-158h-312l-4 193h-8q-43 -111 -127 -164.5
t-201 -53.5q-78 0 -141 24t-109 71q-41 41 -63.5 98t-22.5 119zM240 1219q0 92 48 143t134 51q43 0 81 -15.5t73 -33.5t65.5 -33.5t57.5 -15.5q68 0 67 78h103q0 -92 -48.5 -143.5t-134.5 -51.5q-43 0 -80.5 15.5t-72.5 34t-66 33.5t-57 15q-68 0 -68 -77h-102zM299 262
q0 -72 50 -105.5t138 -33.5q125 0 197 89t72 230v47l-371 -34q-57 -4 -71.5 -30t-14.5 -71v-92z" />
    <glyph glyph-name="adieresis" unicode="&#xe4;" horiz-adv-x="1128" 
d="M104 287q0 123 78 211t234 102l340 31v84q0 61 -15.5 101t-44 63.5t-68.5 33t-89 9.5q-98 0 -156.5 -44t-58.5 -145h-185q0 74 32 135.5t86 106.5t127 69.5t157 24.5t156.5 -21.5t126 -64.5t83 -110.5t29.5 -159.5v-555h156v-158h-312l-4 193h-8q-43 -111 -127 -164.5
t-201 -53.5q-78 0 -141 24t-109 71q-41 41 -63.5 98t-22.5 119zM262 1212v181h180v-181h-180zM299 262q0 -72 50 -105.5t138 -33.5q125 0 197 89t72 230v47l-371 -34q-57 -4 -71.5 -30t-14.5 -71v-92zM622 1212v181h181v-181h-181z" />
    <glyph glyph-name="aring" unicode="&#xe5;" horiz-adv-x="1128" 
d="M104 287q0 123 78 211t234 102l340 31v84q0 61 -15.5 101t-44 63.5t-68.5 33t-89 9.5q-98 0 -156.5 -44t-58.5 -145h-185q0 74 32 135.5t86 106.5t127 69.5t157 24.5t156.5 -21.5t126 -64.5t83 -110.5t29.5 -159.5v-555h156v-158h-312l-4 193h-8q-43 -111 -127 -164.5
t-201 -53.5q-78 0 -141 24t-109 71q-41 41 -63.5 98t-22.5 119zM299 262q0 -72 50 -105.5t138 -33.5q125 0 197 89t72 230v47l-371 -34q-57 -4 -71.5 -30t-14.5 -71v-92zM350 1333q0 68 48 122t134 54t134 -54t48 -122q0 -70 -48 -123t-134 -53t-134 53.5t-48 122.5z
M440 1333q0 -37 25.5 -64.5t66.5 -27.5t65.5 27.5t24.5 64.5t-24.5 63.5t-65.5 26.5t-66.5 -26.5t-25.5 -63.5z" />
    <glyph glyph-name="ae" unicode="&#xe6;" horiz-adv-x="1734" 
d="M106 307q0 61 22 117.5t61.5 99.5t95 68.5t123.5 25.5h350v97q0 61 -15.5 101t-44 63.5t-68.5 33t-89 9.5q-98 0 -156.5 -44t-58.5 -145h-185q0 74 32 135.5t86 106.5t127 69.5t157 24.5q111 0 195.5 -34t138.5 -105q57 66 135 102.5t176 36.5q104 0 185 -39
t136.5 -106.5t85 -158.5t29.5 -196v-98h-682v-111q0 -57 21.5 -101t57.5 -74.5t80 -46t89 -15.5q92 0 161.5 50t80.5 159h184q-6 -84 -44 -149.5t-96.5 -111.5t-133 -71t-154.5 -25q-121 0 -205 45.5t-145 131.5h-4q-61 -86 -152.5 -131.5t-208.5 -45.5q-109 0 -172 24
t-108 71q-41 41 -64 100t-23 137zM301 262q0 -72 50 -105.5t138 -33.5q125 0 197 89t72 230v29h-371q-41 0 -63.5 -25.5t-22.5 -70.5v-113zM942 618h492v58q0 57 -20.5 103t-54.5 78t-79 48.5t-92 16.5t-92 -16.5t-79 -48.5t-54.5 -78t-20.5 -103v-58z" />
    <glyph glyph-name="ccedilla" unicode="&#xe7;" horiz-adv-x="1093" 
d="M117 514q0 125 29.5 228.5t87 175t141.5 111.5t190 40q82 0 155 -21.5t128 -66.5t90 -114.5t43 -164.5h-184q-6 63 -26.5 105.5t-53.5 68t-75 36t-87 10.5q-47 0 -90 -15.5t-78 -46.5t-55.5 -77t-20.5 -107v-307q0 -55 19.5 -101.5t53.5 -78t78 -49t95 -17.5
q102 0 170 55t78 172h184q-10 -96 -49 -166.5t-96.5 -117t-130 -69t-152.5 -22.5q-115 0 -197.5 40t-138 113t-82 171t-26.5 215zM348 -215h144v143h143v-276h-287v133z" />
    <glyph glyph-name="egrave" unicode="&#xe8;" horiz-adv-x="1122" 
d="M115 522q0 119 29.5 220.5t88 173t141.5 112.5t191 41q113 0 197 -39t139 -106.5t83 -158.5t28 -196v-98h-703v-111q0 -57 21.5 -101t58.5 -74.5t83 -46t95 -15.5q98 0 170 50t82 159h185q-6 -84 -44 -149.5t-98.5 -111.5t-136.5 -71t-160 -25q-113 0 -197.5 41t-141 113
t-84 172t-27.5 221zM284 1423h215l162 -249h-160zM309 618h512v58q0 57 -20.5 103t-56 78t-82 48.5t-97.5 16.5t-97 -16.5t-82 -48.5t-56.5 -78t-20.5 -103v-58z" />
    <glyph glyph-name="eacute" unicode="&#xe9;" horiz-adv-x="1122" 
d="M115 522q0 119 29.5 220.5t88 173t141.5 112.5t191 41q113 0 197 -39t139 -106.5t83 -158.5t28 -196v-98h-703v-111q0 -57 21.5 -101t58.5 -74.5t83 -46t95 -15.5q98 0 170 50t82 159h185q-6 -84 -44 -149.5t-98.5 -111.5t-136.5 -71t-160 -25q-113 0 -197.5 41t-141 113
t-84 172t-27.5 221zM309 618h512v58q0 57 -20.5 103t-56 78t-82 48.5t-97.5 16.5t-97 -16.5t-82 -48.5t-56.5 -78t-20.5 -103v-58zM475 1174l162 249h215l-217 -249h-160z" />
    <glyph glyph-name="ecircumflex" unicode="&#xea;" horiz-adv-x="1122" 
d="M115 522q0 119 29.5 220.5t88 173t141.5 112.5t191 41q113 0 197 -39t139 -106.5t83 -158.5t28 -196v-98h-703v-111q0 -57 21.5 -101t58.5 -74.5t83 -46t95 -15.5q98 0 170 50t82 159h185q-6 -84 -44 -149.5t-98.5 -111.5t-136.5 -71t-160 -25q-113 0 -197.5 41t-141 113
t-84 172t-27.5 221zM289 1174l170 249h211l170 -249h-160l-117 149l-117 -149h-157zM309 618h512v58q0 57 -20.5 103t-56 78t-82 48.5t-97.5 16.5t-97 -16.5t-82 -48.5t-56.5 -78t-20.5 -103v-58z" />
    <glyph glyph-name="edieresis" unicode="&#xeb;" horiz-adv-x="1122" 
d="M115 522q0 119 29.5 220.5t88 173t141.5 112.5t191 41q113 0 197 -39t139 -106.5t83 -158.5t28 -196v-98h-703v-111q0 -57 21.5 -101t58.5 -74.5t83 -46t95 -15.5q98 0 170 50t82 159h185q-6 -84 -44 -149.5t-98.5 -111.5t-136.5 -71t-160 -25q-113 0 -197.5 41t-141 113
t-84 172t-27.5 221zM295 1212v181h180v-181h-180zM309 618h512v58q0 57 -20.5 103t-56 78t-82 48.5t-97.5 16.5t-97 -16.5t-82 -48.5t-56.5 -78t-20.5 -103v-58zM655 1212v181h181v-181h-181z" />
    <glyph glyph-name="igrave" unicode="&#xec;" horiz-adv-x="524" 
d="M14 1423h215l162 -249h-160zM170 0v1044h184v-1044h-184z" />
    <glyph glyph-name="iacute" unicode="&#xed;" horiz-adv-x="524" 
d="M137 1174l162 249h215l-217 -249h-160zM170 0v1044h184v-1044h-184z" />
    <glyph glyph-name="icircumflex" unicode="&#xee;" horiz-adv-x="524" 
d="M-10 1174l170 249h211l170 -249h-160l-117 149l-117 -149h-157zM170 0v1044h184v-1044h-184z" />
    <glyph glyph-name="idieresis" unicode="&#xef;" horiz-adv-x="524" 
d="M-6 1212v181h180v-181h-180zM170 0v1044h184v-1044h-184zM354 1212v181h181v-181h-181z" />
    <glyph glyph-name="eth" unicode="&#xf0;" horiz-adv-x="1169" 
d="M117 481q0 111 28.5 203t83 159.5t129 105.5t166.5 38q96 0 160 -29l-98 152h-275v127h193l-101 156h199l100 -156h277v-127h-193l109 -162q20 -31 48 -77t52.5 -104t42 -130t17.5 -156q0 -113 -32 -206t-91.5 -159.5t-147.5 -103.5t-198 -37q-111 0 -199 37
t-147.5 103.5t-91 160t-31.5 205.5zM311 360q0 -53 22.5 -97t59.5 -74.5t87 -48t106 -17.5q55 0 105 17.5t87 48t59.5 74.5t22.5 97v242q0 53 -22.5 97t-60.5 75t-88 48.5t-103 17.5q-55 0 -105.5 -17.5t-87.5 -48.5t-59.5 -75t-22.5 -97v-242z" />
    <glyph glyph-name="ntilde" unicode="&#xf1;" horiz-adv-x="1167" 
d="M170 0v1044h184v-172q43 92 118 144.5t194 52.5q76 0 138 -20.5t107 -65.5t70 -115.5t25 -171.5v-696h-185v676q0 115 -44 180.5t-163 65.5q-57 0 -104 -22.5t-82 -64.5t-54.5 -99.5t-19.5 -125.5v-610h-184zM270 1219q0 92 48 143t134 51q43 0 81 -15.5t73 -33.5
t65.5 -33.5t57.5 -15.5q68 0 67 78h103q0 -92 -48.5 -143.5t-134.5 -51.5q-43 0 -80.5 15.5t-72.5 34t-66 33.5t-57 15q-68 0 -68 -77h-102z" />
    <glyph glyph-name="ograve" unicode="&#xf2;" horiz-adv-x="1167" 
d="M115 522q0 119 28.5 220.5t87 173t146.5 112.5t207 41t207 -41t146 -112.5t87 -173t29 -220.5q0 -121 -29 -221t-87 -172t-146.5 -113t-206.5 -41q-119 0 -207 41t-146.5 113t-87 172t-28.5 221zM280 1423h215l162 -249h-160zM309 360q0 -53 22.5 -97t59.5 -74.5t87 -48
t106 -17.5q55 0 105 17.5t87 48t59.5 74.5t22.5 97v324q0 53 -22.5 97t-59.5 75t-87 48.5t-105 17.5t-105.5 -17.5t-87.5 -48.5t-59.5 -75t-22.5 -97v-324z" />
    <glyph glyph-name="oacute" unicode="&#xf3;" horiz-adv-x="1167" 
d="M115 522q0 119 28.5 220.5t87 173t146.5 112.5t207 41t207 -41t146 -112.5t87 -173t29 -220.5q0 -121 -29 -221t-87 -172t-146.5 -113t-206.5 -41q-119 0 -207 41t-146.5 113t-87 172t-28.5 221zM309 360q0 -53 22.5 -97t59.5 -74.5t87 -48t106 -17.5q55 0 105 17.5
t87 48t59.5 74.5t22.5 97v324q0 53 -22.5 97t-59.5 75t-87 48.5t-105 17.5t-105.5 -17.5t-87.5 -48.5t-59.5 -75t-22.5 -97v-324zM491 1174l162 249h215l-217 -249h-160z" />
    <glyph glyph-name="ocircumflex" unicode="&#xf4;" horiz-adv-x="1167" 
d="M115 522q0 119 28.5 220.5t87 173t146.5 112.5t207 41t207 -41t146 -112.5t87 -173t29 -220.5q0 -121 -29 -221t-87 -172t-146.5 -113t-206.5 -41q-119 0 -207 41t-146.5 113t-87 172t-28.5 221zM309 360q0 -53 22.5 -97t59.5 -74.5t87 -48t106 -17.5q55 0 105 17.5
t87 48t59.5 74.5t22.5 97v324q0 53 -22.5 97t-59.5 75t-87 48.5t-105 17.5t-105.5 -17.5t-87.5 -48.5t-59.5 -75t-22.5 -97v-324zM312 1174l170 249h211l170 -249h-160l-117 149l-117 -149h-157z" />
    <glyph glyph-name="otilde" unicode="&#xf5;" horiz-adv-x="1167" 
d="M115 522q0 119 28.5 220.5t87 173t146.5 112.5t207 41t207 -41t146 -112.5t87 -173t29 -220.5q0 -121 -29 -221t-87 -172t-146.5 -113t-206.5 -41q-119 0 -207 41t-146.5 113t-87 172t-28.5 221zM270 1219q0 92 48 143t134 51q43 0 81 -15.5t73 -33.5t65.5 -33.5
t57.5 -15.5q68 0 67 78h103q0 -92 -48.5 -143.5t-134.5 -51.5q-43 0 -80.5 15.5t-72.5 34t-66 33.5t-57 15q-68 0 -68 -77h-102zM309 360q0 -53 22.5 -97t59.5 -74.5t87 -48t106 -17.5q55 0 105 17.5t87 48t59.5 74.5t22.5 97v324q0 53 -22.5 97t-59.5 75t-87 48.5
t-105 17.5t-105.5 -17.5t-87.5 -48.5t-59.5 -75t-22.5 -97v-324z" />
    <glyph glyph-name="odieresis" unicode="&#xf6;" horiz-adv-x="1167" 
d="M115 522q0 119 28.5 220.5t87 173t146.5 112.5t207 41t207 -41t146 -112.5t87 -173t29 -220.5q0 -121 -29 -221t-87 -172t-146.5 -113t-206.5 -41q-119 0 -207 41t-146.5 113t-87 172t-28.5 221zM309 360q0 -53 22.5 -97t59.5 -74.5t87 -48t106 -17.5q55 0 105 17.5
t87 48t59.5 74.5t22.5 97v324q0 53 -22.5 97t-59.5 75t-87 48.5t-105 17.5t-105.5 -17.5t-87.5 -48.5t-59.5 -75t-22.5 -97v-324zM316 1212v181h180v-181h-180zM676 1212v181h181v-181h-181z" />
    <glyph glyph-name="divide" unicode="&#xf7;" 
d="M92 449v147h1045v-147h-1045zM510 0v211h209v-211h-209zM510 834v210h209v-210h-209z" />
    <glyph glyph-name="oslash" unicode="&#xf8;" horiz-adv-x="1167" 
d="M115 522q0 119 28.5 220.5t87 173t146.5 112.5t207 41q51 0 96 -8t86 -23l74 152l114 -55l-77 -160q90 -72 133 -188.5t43 -264.5q0 -121 -29 -221t-87 -172t-146.5 -113t-206.5 -41q-100 0 -181 29l-73 -149l-115 55l76 158q-90 72 -133 188.5t-43 265.5zM309 360
q0 -43 14.5 -79.5t38.5 -65.5l336 686q-57 20 -114 21q-55 0 -105.5 -17.5t-87.5 -48.5t-59.5 -75t-22.5 -97v-324zM471 141q51 -18 113 -18q55 0 105 17.5t87 48t59.5 74.5t22.5 97v324q0 41 -14.5 78t-38.5 65z" />
    <glyph glyph-name="ugrave" unicode="&#xf9;" horiz-adv-x="1159" 
d="M162 348v696h184v-675q0 -113 44 -179.5t161 -66.5t185.5 87t68.5 224v610h184v-1044h-184v172q-43 -92 -115 -144.5t-190 -52.5q-72 0 -134.5 20.5t-107.5 65.5t-70.5 116t-25.5 171zM342 1423h215l162 -249h-160z" />
    <glyph glyph-name="uacute" unicode="&#xfa;" horiz-adv-x="1159" 
d="M162 348v696h184v-675q0 -113 44 -179.5t161 -66.5t185.5 87t68.5 224v610h184v-1044h-184v172q-43 -92 -115 -144.5t-190 -52.5q-72 0 -134.5 20.5t-107.5 65.5t-70.5 116t-25.5 171zM450 1174l162 249h215l-217 -249h-160z" />
    <glyph glyph-name="ucircumflex" unicode="&#xfb;" horiz-adv-x="1159" 
d="M162 348v696h184v-675q0 -113 44 -179.5t161 -66.5t185.5 87t68.5 224v610h184v-1044h-184v172q-43 -92 -115 -144.5t-190 -52.5q-72 0 -134.5 20.5t-107.5 65.5t-70.5 116t-25.5 171zM307 1174l170 249h211l170 -249h-160l-117 149l-117 -149h-157z" />
    <glyph glyph-name="udieresis" unicode="&#xfc;" horiz-adv-x="1159" 
d="M162 348v696h184v-675q0 -113 44 -179.5t161 -66.5t185.5 87t68.5 224v610h184v-1044h-184v172q-43 -92 -115 -144.5t-190 -52.5q-72 0 -134.5 20.5t-107.5 65.5t-70.5 116t-25.5 171zM309 1212v181h180v-181h-180zM669 1212v181h181v-181h-181z" />
    <glyph glyph-name="yacute" unicode="&#xfd;" horiz-adv-x="1067" 
d="M61 1044h199l272 -817h9l280 817h191l-512 -1392h-357v158h240l66 190zM430 1174l162 249h215l-217 -249h-160z" />
    <glyph glyph-name="thorn" unicode="&#xfe;" horiz-adv-x="1218" 
d="M170 -348v1741h184v-519q49 94 132 144.5t202 50.5q104 0 182 -43t129.5 -116.5t77 -174t25.5 -213.5q0 -115 -25.5 -214t-77 -173t-129 -117t-182.5 -43q-119 0 -202 50.5t-132 144.5v-518h-184zM354 434q0 -135 74 -223t213 -88q117 0 191.5 65.5t74.5 171.5v324
q0 106 -74.5 172t-191.5 66q-139 0 -213 -88.5t-74 -223.5v-176z" />
    <glyph glyph-name="ydieresis" unicode="&#xff;" horiz-adv-x="1067" 
d="M61 1044h199l272 -817h9l280 817h191l-512 -1392h-357v158h240l66 190zM270 1212v181h180v-181h-180zM630 1212v181h181v-181h-181z" />
    <glyph glyph-name="OE" unicode="&#x152;" horiz-adv-x="2150" 
d="M125 696q0 164 35 298t107.5 229.5t185 147.5t270.5 52q123 0 217 -32.5t166 -96.5v99h924v-174h-730v-422h635v-174h-635v-449h730v-174h-924v98q-72 -63 -166 -96t-217 -33q-158 0 -270.5 52.5t-185 147.5t-107.5 229t-35 298zM340 481q0 -80 29.5 -142.5t82 -107.5
t122 -68.5t149.5 -23.5t149.5 23.5t122 68.5t82 107.5t29.5 142.5v430q0 80 -29.5 142.5t-82 107.5t-122 68.5t-149.5 23.5t-149.5 -23.5t-122 -68.5t-82 -107.5t-29.5 -142.5v-430z" />
    <glyph glyph-name="oe" unicode="&#x153;" horiz-adv-x="1855" 
d="M115 522q0 119 28.5 220.5t87 173t146.5 112.5t207 41q127 0 218 -45t150 -127q59 82 145.5 127t200.5 45q106 0 190.5 -39t141 -106.5t86 -158.5t29.5 -196v-98h-703v-111q0 -57 21.5 -101t58.5 -74.5t83 -46t95 -15.5q98 0 170 50t82 159h185q-6 -84 -44 -149.5
t-98.5 -111.5t-136.5 -71t-160 -25q-119 0 -205.5 44t-144.5 124q-59 -78 -148 -123t-216 -45q-119 0 -207 41t-146.5 113t-87 172t-28.5 221zM309 360q0 -53 22.5 -97t59.5 -74.5t87 -48t106 -17.5q55 0 105 17.5t87 48t59.5 74.5t22.5 97v324q0 53 -22.5 97t-59.5 75
t-87 48.5t-105 17.5t-105.5 -17.5t-87.5 -48.5t-59.5 -75t-22.5 -97v-324zM1042 618h512v58q0 57 -20.5 103t-56 78t-81.5 48.5t-98 16.5q-51 0 -97 -16.5t-82 -48.5t-56.5 -78t-20.5 -103v-58z" />
    <glyph glyph-name="Ydieresis" unicode="&#x178;" horiz-adv-x="1206" 
d="M43 1393h213l348 -648l354 648h207l-465 -840v-553h-194v555zM336 1568v181h180v-181h-180zM696 1568v181h181v-181h-181z" />
    <glyph glyph-name="circumflex" unicode="&#x2c6;" horiz-adv-x="614" 
d="M31 1174l170 249h211l170 -249h-160l-117 149l-117 -149h-157z" />
    <glyph glyph-name="tilde" unicode="&#x2dc;" horiz-adv-x="614" 
d="M-6 1219q0 92 48 143t134 51q43 0 81 -15.5t73 -33.5t65.5 -33.5t57.5 -15.5q68 0 67 78h103q0 -92 -48.5 -143.5t-134.5 -51.5q-43 0 -80.5 15.5t-72.5 34t-66 33.5t-57 15q-68 0 -68 -77h-102z" />
    <glyph glyph-name="uni2000" unicode="&#x2000;" horiz-adv-x="944" 
 />
    <glyph glyph-name="uni2001" unicode="&#x2001;" horiz-adv-x="1888" 
 />
    <glyph glyph-name="uni2002" unicode="&#x2002;" horiz-adv-x="944" 
 />
    <glyph glyph-name="uni2003" unicode="&#x2003;" horiz-adv-x="1888" 
 />
    <glyph glyph-name="uni2004" unicode="&#x2004;" horiz-adv-x="629" 
 />
    <glyph glyph-name="uni2005" unicode="&#x2005;" horiz-adv-x="472" 
 />
    <glyph glyph-name="uni2006" unicode="&#x2006;" horiz-adv-x="314" 
 />
    <glyph glyph-name="uni2007" unicode="&#x2007;" horiz-adv-x="314" 
 />
    <glyph glyph-name="uni2008" unicode="&#x2008;" horiz-adv-x="236" 
 />
    <glyph glyph-name="uni2009" unicode="&#x2009;" horiz-adv-x="377" 
 />
    <glyph glyph-name="uni200A" unicode="&#x200a;" horiz-adv-x="104" 
 />
    <glyph glyph-name="uni2010" unicode="&#x2010;" horiz-adv-x="884" 
d="M156 471v168h573v-168h-573z" />
    <glyph glyph-name="uni2011" unicode="&#x2011;" horiz-adv-x="884" 
d="M156 471v168h573v-168h-573z" />
    <glyph glyph-name="figuredash" unicode="&#x2012;" horiz-adv-x="884" 
d="M156 471v168h573v-168h-573z" />
    <glyph glyph-name="endash" unicode="&#x2013;" horiz-adv-x="1273" 
d="M156 471v168h962v-168h-962z" />
    <glyph glyph-name="emdash" unicode="&#x2014;" horiz-adv-x="2318" 
d="M197 471v168h1925v-168h-1925z" />
    <glyph glyph-name="quoteleft" unicode="&#x2018;" horiz-adv-x="526" 
d="M147 942v225l127 226h99l-121 -226h121v-225h-226z" />
    <glyph glyph-name="quoteright" unicode="&#x2019;" horiz-adv-x="512" 
d="M158 942l121 225h-121v226h225v-226l-127 -225h-98z" />
    <glyph glyph-name="quotesinglbase" unicode="&#x201a;" horiz-adv-x="536" 
d="M156 0v225h225v-225l-127 -225h-98l120 225h-120z" />
    <glyph glyph-name="quotedblleft" unicode="&#x201c;" horiz-adv-x="915" 
d="M147 942v225l127 226h99l-121 -226h121v-225h-226zM537 942v225l127 226h98l-121 -226h121v-225h-225z" />
    <glyph glyph-name="quotedblright" unicode="&#x201d;" horiz-adv-x="901" 
d="M158 942l121 225h-121v226h225v-226l-127 -225h-98zM547 942l121 225h-121v226h225v-226l-127 -225h-98z" />
    <glyph glyph-name="quotedblbase" unicode="&#x201e;" horiz-adv-x="925" 
d="M156 0v225h225v-225l-127 -225h-98l120 225h-120zM545 0v225h225v-225l-127 -225h-98l121 225h-121z" />
    <glyph glyph-name="bullet" unicode="&#x2022;" horiz-adv-x="1069" 
d="M188 696q0 72 27 135.5t74 110.5t110.5 74.5t135.5 27.5t135 -27.5t110 -74.5t75 -110.5t28 -135.5t-28 -135t-75 -110.5t-110.5 -74t-134.5 -26.5q-72 0 -135.5 26.5t-110.5 74t-74 110.5t-27 135z" />
    <glyph glyph-name="ellipsis" unicode="&#x2026;" horiz-adv-x="1888" 
d="M156 0v225h225v-225h-225zM831 0v225h226v-225h-226zM1507 0v225h226v-225h-226z" />
    <glyph glyph-name="uni202F" unicode="&#x202f;" horiz-adv-x="377" 
 />
    <glyph glyph-name="guilsinglleft" unicode="&#x2039;" horiz-adv-x="634" 
d="M119 526l219 381h164l-199 -381l199 -381h-164z" />
    <glyph glyph-name="guilsinglright" unicode="&#x203a;" horiz-adv-x="634" 
d="M133 145l199 381l-199 381h164l219 -381l-219 -381h-164z" />
    <glyph glyph-name="uni205F" unicode="&#x205f;" horiz-adv-x="472" 
 />
    <glyph glyph-name="Euro" unicode="&#x20ac;" 
d="M39 516l41 121h106v125h-147l41 121h115q12 119 45.5 218t95 170.5t154 111.5t221.5 40q203 0 314.5 -106.5t125.5 -290.5h-184q-14 127 -80 182.5t-195 55.5q-154 0 -227.5 -99.5t-73.5 -253.5v-28h467l-41 -121h-426v-125h385l-41 -121h-344v-35q0 -78 21.5 -142.5
t61.5 -110.5t96.5 -72.5t123.5 -26.5q129 0 194.5 57.5t80.5 198.5h184q-14 -195 -137 -305.5t-320 -110.5q-117 0 -205 39t-149 110.5t-97 172t-50 225.5h-156z" />
    <glyph glyph-name="trademark" unicode="&#x2122;" horiz-adv-x="1781" 
d="M141 1264v129h561v-129h-208v-568h-144v568h-209zM840 696v697h223l164 -488l164 488h219v-697h-144v504l-176 -504h-133l-174 504v-504h-143z" />
    <glyph glyph-name="uniE000" unicode="&#xe000;" horiz-adv-x="1044" 
d="M0 0v1044h1044v-1044h-1044z" />
  </font>
</defs>
</svg>
